<svg width="46" height="46" viewBox="0 0 46 46" fill="none" xmlns="http://www.w3.org/2000/svg">
<path d="M0 23C0 10.2975 10.2975 0 23 0C35.7025 0 46 10.2975 46 23C46 35.7025 35.7025 46 23 46C10.2975 46 0 35.7025 0 23Z" fill="#1675EB"/>
<path d="M20.649 20.6606H21.399V19.9106V17.4142C21.399 15.9229 21.8539 14.7671 22.5913 13.9899C23.3248 13.2168 24.4018 12.7501 25.785 12.75C25.7852 12.75 25.7854 12.75 25.7856 12.75L28.2489 12.7541V15.5104L26.6915 15.5109C26.6914 15.5109 26.6913 15.5109 26.6912 15.5109C25.9828 15.511 25.3157 15.646 24.8761 16.1574C24.4614 16.64 24.4157 17.28 24.4157 17.7944V19.9106V20.6606H25.1657H28.1186L28.1175 23.6749H25.1657H24.4157V24.4249V33.25H21.399V24.4249V23.6749H20.649H18.1699V20.6606H20.649ZM28.5624 15.5103H28.5621H28.5624Z" fill="white" stroke="white" stroke-width="1.5"/>
</svg>
